<?xml version="1.0" encoding="UTF-8"?>
<svg version="1.1" xmlns="http://www.w3.org/2000/svg" width="1024" height="1024">
<path d="M0 0 C337.92 0 675.84 0 1024 0 C1024 337.92 1024 675.84 1024 1024 C686.08 1024 348.16 1024 0 1024 C0 686.08 0 348.16 0 0 Z " fill="#0D84C7" transform="translate(0,0)"/>
<path d="M0 0 C0.58942383 0.31404785 1.17884766 0.6280957 1.78613281 0.95166016 C59.5417748 32.01743862 102.41180596 86.84552022 121.234375 149.34521484 C139.22579238 211.72999564 130.7963712 279.1130158 100 336 C93.58575018 347.33800259 86.23084163 357.9139528 78 368 C77.20851563 368.99515625 76.41703125 369.9903125 75.6015625 371.015625 C63.96903112 385.3991544 50.63089992 398.91907239 35.64746094 409.80126953 C33.98141552 411.0135225 32.33813285 412.25260363 30.6953125 413.49609375 C-10.59279531 444.33303665 -62.41031469 461.21089526 -113.8125 461.25 C-114.60867737 461.25067474 -115.40485474 461.25134949 -116.22515869 461.25204468 C-183.02999347 461.16261944 -242.71956336 435.76873763 -291 390 C-291.75265137 389.29037109 -291.75265137 389.29037109 -292.52050781 388.56640625 C-300.00689011 381.46036106 -306.53867942 373.90690404 -312.74023438 365.66113281 C-313.89367251 364.14020392 -315.07818647 362.6429722 -316.265625 361.1484375 C-348.02569011 320.59151982 -363.54051586 268.52341798 -363.3125 217.4375 C-363.31034485 216.56326385 -363.3081897 215.68902771 -363.30596924 214.78829956 C-363.10261215 163.19025892 -347.15864042 113.32294319 -316 72 C-315.57638184 71.43216797 -315.15276367 70.86433594 -314.71630859 70.27929688 C-274.62834237 16.7884717 -214.04592677 -17.76616846 -148.11865234 -27.40844727 C-97.31920851 -34.12462234 -45.08086892 -24.16669392 0 0 Z " fill="#0D83C7" transform="translate(627,143)"/>
<path d="M0 0 C1.40030708 -0.01467567 1.40030708 -0.01467567 2.8289032 -0.02964783 C5.92872689 -0.05964217 9.02850719 -0.08100146 12.12841797 -0.09985352 C13.18675716 -0.10642534 14.24509636 -0.11299717 15.33550644 -0.11976814 C20.94029148 -0.1523835 26.54505736 -0.17682598 32.14990234 -0.19628906 C36.78657779 -0.21408711 41.42264336 -0.24888077 46.05908203 -0.29882812 C51.65707665 -0.35906674 57.2545066 -0.38977064 62.85280991 -0.39946175 C64.98423705 -0.40801355 67.11564923 -0.42682477 69.24689102 -0.45620537 C72.23687367 -0.49519604 75.22466641 -0.49614414 78.21484375 -0.48828125 C79.08996109 -0.50828186 79.96507843 -0.52828247 80.86671448 -0.54888916 C87.52152558 -0.4706317 91.14243233 1.77552132 95.99560547 6.20874023 C97.30851562 7.39016602 97.30851562 7.39016602 98.64794922 8.59545898 C104.51458501 14.50220852 109.88340778 20.63948294 114.99560547 27.20874023 C115.44129883 27.77802246 115.88699219 28.34730469 116.34619141 28.93383789 C129.42223581 45.71191958 140.62791473 63.65560353 150.99560547 82.20874023 C151.38167969 82.88904297 151.76775391 83.5693457 152.16552734 84.27026367 C170.33256498 116.40104688 190.46963887 161.51101571 180.99560547 199.20874023 C175.27616736 217.17750124 163.1500977 228.79331161 146.79101562 237.29467773 C119.32458878 251.2781292 87.40449439 255.29501985 56.92529297 255.41186523 C55.72413849 255.41756531 54.52298401 255.42326538 53.28543091 255.42913818 C50.75605122 255.43851498 48.22665972 255.44509269 45.69726562 255.44897461 C41.92799057 255.45859379 38.15928246 255.48965384 34.39013672 255.52124023 C-3.06447485 255.68624661 -51.45516912 252.90361695 -80.1652832 225.22583008 C-93.52374661 211.77089019 -97.46738201 197.23482844 -97.43603516 178.67749023 C-97.23696309 167.05425008 -95.10646377 156.37213209 -92.00439453 145.20874023 C-91.72563477 144.18312988 -91.446875 143.15751953 -91.15966797 142.10083008 C-86.48913532 125.19019167 -80.18829442 109.19518413 -73.00439453 93.20874023 C-72.62702148 92.35231934 -72.24964844 91.49589844 -71.86083984 90.61352539 C-60.94879232 65.90916895 -31.68439219 0.20822636 0 0 Z " fill="#FEFEFE" transform="translate(470.00439453125,282.791259765625)"/>
<path d="M0 0 C0.95350342 0.7415332 0.95350342 0.7415332 1.92626953 1.49804688 C27.48531573 21.45209427 48.70642096 44.55935548 66 72 C66.40814941 72.64340332 66.81629883 73.28680664 67.23681641 73.94970703 C86.99820067 105.39983828 99.49526877 142.1901379 104 179 C104.10151367 179.76199707 104.20302734 180.52399414 104.30761719 181.30908203 C112.95273907 246.96564646 95.66077292 314.84097217 58 369 C56.99839844 370.44826172 56.99839844 370.44826172 55.9765625 371.92578125 C14.07625357 431.01376792 -51.42780201 468.07924432 -122.10546875 480.54785156 C-165.04059757 487.53244723 -210.75677407 483.36962692 -252 470 C-252.87011719 469.71817871 -253.74023438 469.43635742 -254.63671875 469.14599609 C-290.42133758 457.32009378 -322.0426441 438.12445396 -350 413 C-350.57508301 412.48663086 -351.15016602 411.97326172 -351.74267578 411.44433594 C-357.57959518 406.21748547 -363.3253138 400.98462344 -368.3515625 394.953125 C-369.51488891 393.57477617 -370.72308443 392.23370335 -371.9609375 390.921875 C-409.66352869 350.90540637 -429.50394638 296.74889413 -436 243 C-436.1045752 242.15405273 -436.20915039 241.30810547 -436.31689453 240.43652344 C-438.89634259 216.4878017 -438.27325773 190.6609695 -434 167 C-433.81195801 165.94699707 -433.62391602 164.89399414 -433.43017578 163.80908203 C-421.6847224 100.55930164 -386.18406559 40.33669683 -334 2 C-333.03320312 1.24976563 -332.06640625 0.49953125 -331.0703125 -0.2734375 C-294.78037262 -28.30225286 -251.23502554 -46.05261021 -206 -53 C-205.26233398 -53.11714355 -204.52466797 -53.23428711 -203.76464844 -53.35498047 C-133.31084129 -63.98147357 -55.89136613 -43.96323849 0 0 Z M-323 26 C-323.52271484 26.43393066 -324.04542969 26.86786133 -324.58398438 27.31494141 C-336.91500181 37.56149666 -348.12533531 48.31547138 -358 61 C-359.01941 62.2787425 -360.03894997 63.5573814 -361.05859375 64.8359375 C-368.89190154 74.75991526 -375.69505009 85.04808741 -382 96 C-382.35900391 96.60956543 -382.71800781 97.21913086 -383.08789062 97.84716797 C-410.23432524 144.15960828 -419.42504125 205.37836321 -409 258 C-408.80132324 259.02125977 -408.60264648 260.04251953 -408.39794922 261.09472656 C-399.01975212 307.95058774 -377.30141135 349.7376524 -344 384 C-343.50258301 384.51788086 -343.00516602 385.03576172 -342.49267578 385.56933594 C-335.72741898 392.59755325 -328.69976567 398.98756162 -321 405 C-320.03964844 405.77730469 -319.07929688 406.55460937 -318.08984375 407.35546875 C-267.26404394 447.77193914 -200.90614105 465.02320658 -136.62158203 458.22607422 C-82.7787831 451.34376801 -32.13593837 427.60885548 7 390 C7.59458008 389.43265137 8.18916016 388.86530273 8.80175781 388.28076172 C17.70247208 379.74498133 25.6804394 370.91974467 33 361 C33.83712299 359.89314098 34.67436192 358.78636963 35.51171875 357.6796875 C72.95605509 307.47040313 87.62697098 242.5814696 79.48095703 180.82519531 C72.77048839 136.08379443 54.18831807 93.64457353 25 59 C24.33315186 58.19997559 24.33315186 58.19997559 23.65283203 57.38378906 C14.83009324 46.81301014 5.60620244 36.82379571 -5 28 C-5.49000488 27.58556641 -5.98000977 27.17113281 -6.48486328 26.74414062 C-17.03903406 17.85443812 -28.25559705 10.22972759 -40 3 C-41.04607422 2.35587158 -41.04607422 2.35587158 -42.11328125 1.69873047 C-78.31736869 -20.28614807 -121.95681786 -31.21294591 -164.125 -31.25 C-164.82253387 -31.25067474 -165.52006775 -31.25134949 -166.23873901 -31.25204468 C-223.18542123 -31.1653851 -279.39116756 -10.71970707 -323 26 Z " fill="#FDFEFE" transform="translate(676,145)"/>
<path d="M0 0 C10.03604407 8.21317076 15.72376754 18.91587534 17.46044922 31.8046875 C19.42416297 52.41312431 18.3160073 72.50628361 6.6875 90.1875 C0.71325426 97.37593597 -7.98280063 102.82748552 -17.3125 104.1875 C-30.13921211 105.03612195 -40.38835517 103.87298837 -50.75390625 95.5546875 C-51.98156316 94.47779548 -53.15776239 93.34223761 -54.3125 92.1875 C-54.32058685 92.85957489 -54.32867371 93.53164978 -54.33700562 94.22409058 C-54.42285284 101.199233 -54.52234703 108.17408469 -54.62988281 115.14892578 C-54.66824082 117.75434499 -54.70308145 120.3598184 -54.734375 122.96533203 C-54.77987751 126.70364803 -54.83789626 130.44158865 -54.8984375 134.1796875 C-54.90998871 135.35054901 -54.92153992 136.52141052 -54.93344116 137.72775269 C-54.95331085 138.80872223 -54.97318054 139.88969177 -54.99365234 141.00341797 C-55.00697601 141.95828094 -55.02029968 142.91314392 -55.0340271 143.89694214 C-55.3125 146.1875 -55.3125 146.1875 -57.3125 148.1875 C-61.62807399 148.64656021 -65.97534155 148.51151051 -70.3125 148.5 C-72.13394531 148.52416992 -72.13394531 148.52416992 -73.9921875 148.54882812 C-75.14976562 148.54947266 -76.30734375 148.55011719 -77.5 148.55078125 C-78.56605469 148.55376221 -79.63210938 148.55674316 -80.73046875 148.55981445 C-81.58253906 148.43695068 -82.43460937 148.31408691 -83.3125 148.1875 C-85.63851674 144.69847488 -85.56360608 143.34246664 -85.56646729 139.22154236 C-85.57210693 137.97501389 -85.57774658 136.72848541 -85.58355713 135.44418335 C-85.57966843 134.06036319 -85.57557209 132.6765436 -85.57128906 131.29272461 C-85.57399868 129.83741582 -85.57755945 128.3821084 -85.58190918 126.92680359 C-85.59103814 122.9723935 -85.58748707 119.01808759 -85.58115101 115.06367564 C-85.5760946 110.92994448 -85.58078137 106.79622235 -85.58392334 102.66249084 C-85.58756363 95.72118525 -85.58276183 88.77992219 -85.57324219 81.83862305 C-85.56235323 73.8059511 -85.56588615 65.77338064 -85.576895 57.74071115 C-85.58596099 50.85064636 -85.58725666 43.96061218 -85.58201766 37.07054335 C-85.57889471 32.95243227 -85.57849757 28.83436895 -85.58509064 24.71626091 C-85.59085365 20.84620837 -85.58688651 16.97628716 -85.57530212 13.10624886 C-85.5726501 11.68320052 -85.57342983 10.26014118 -85.57782745 8.83709717 C-85.58326265 6.9002267 -85.57525005 4.96333218 -85.56646729 3.026474 C-85.56571323 1.94081115 -85.56495918 0.8551483 -85.56418228 -0.26341343 C-85.3125 -2.8125 -85.3125 -2.8125 -83.3125 -4.8125 C-78.8979737 -6.28089734 -74.35024484 -5.99654895 -69.75 -6 C-68.45545898 -6.01836914 -68.45545898 -6.01836914 -67.13476562 -6.03710938 C-65.89049805 -6.04000977 -65.89049805 -6.04000977 -64.62109375 -6.04296875 C-63.86626709 -6.04707764 -63.11144043 -6.05118652 -62.33374023 -6.05541992 C-60.3125 -5.8125 -60.3125 -5.8125 -57.3125 -3.8125 C-56.8359375 -1.5 -56.8359375 -1.5 -56.6875 1.1875 C-56.52475801 4.82575879 -56.52475801 4.82575879 -55.3125 8.1875 C-54.69375 7.32125 -54.075 6.455 -53.4375 5.5625 C-40.54307017 -9.80184879 -15.80983878 -11.12654692 0 0 Z " fill="#FDFEFE" transform="translate(552.3125,751.8125)"/>
<path d="M0 0 C2.49023438 -0.37231445 2.49023438 -0.37231445 5.59375 -0.36328125 C6.70621094 -0.36263672 7.81867188 -0.36199219 8.96484375 -0.36132812 C10.13144531 -0.34521484 11.29804687 -0.32910156 12.5 -0.3125 C14.24990234 -0.31733398 14.24990234 -0.31733398 16.03515625 -0.32226562 C24.73316782 -0.26683218 24.73316782 -0.26683218 27 2 C27.26729965 4.59873199 27.26729965 4.59873199 27.29193115 7.95959473 C27.30598495 9.229991 27.32003876 10.50038727 27.33451843 11.8092804 C27.34007354 13.22506637 27.34542241 14.64085317 27.35058594 16.05664062 C27.36315274 17.54136362 27.376565 19.02607967 27.39076233 20.51078796 C27.42670388 24.54990206 27.45001915 28.58899951 27.4705801 32.6282177 C27.49361056 36.84874488 27.52628851 41.06919925 27.55743408 45.28967285 C27.60811678 52.37814207 27.65038754 59.46662596 27.68798828 66.55517578 C27.7316327 74.75888581 27.78969591 82.96240062 27.85523582 91.1659627 C27.91105281 98.20033058 27.95905054 105.23472009 28.0004847 112.26918745 C28.02526651 116.47453169 28.05280486 120.67981 28.08739471 124.88508606 C28.11947674 128.8379629 28.14176967 132.79077466 28.15640068 136.74375343 C28.16340056 138.19746293 28.17385579 139.65116034 28.18795204 141.10481834 C28.20658404 143.08328168 28.21168233 145.06185892 28.21600342 147.04040527 C28.22262371 148.14948997 28.229244 149.25857468 28.23606491 150.40126801 C28 153 28 153 26 155 C22.01844664 155.45594946 18.00464871 155.32403413 14 155.3125 C12.32164062 155.33666992 12.32164062 155.33666992 10.609375 155.36132812 C9.00835938 155.36229492 9.00835938 155.36229492 7.375 155.36328125 C5.90160156 155.36775269 5.90160156 155.36775269 4.3984375 155.37231445 C3.60695313 155.24945068 2.81546875 155.12658691 2 155 C-0.67927341 150.98108988 -0.15601248 148.75838077 0 144 C-0.66 144 -1.32 144 -2 144 C-2.37125 144.89525391 -2.37125 144.89525391 -2.75 145.80859375 C-5.69192382 150.96615395 -12.06665731 153.91192584 -17.5 155.875 C-30.33059274 159.21775973 -42.59826983 157.4479748 -54.1875 151.3125 C-65.8517911 141.72186065 -72.45946724 129.02805427 -74 114 C-75.49514237 94.10528714 -73.0089332 74.36267557 -59.75 58.625 C-51.91685622 50.42261712 -43.23223874 46.06024747 -31.875 45.625 C-20.77743046 45.80419951 -10.80503102 49.03706373 -3 57 C-2.99191315 56.33014572 -2.98382629 55.66029144 -2.97549438 54.97013855 C-2.88957306 48.0110647 -2.790075 41.0522798 -2.68261719 34.09350586 C-2.64428568 31.49492233 -2.60944026 28.89628498 -2.578125 26.29760742 C-2.53256534 22.56669857 -2.47455538 18.8361616 -2.4140625 15.10546875 C-2.40251129 13.93976852 -2.39096008 12.7740683 -2.37905884 11.57304382 C-2.35918915 10.49214981 -2.33931946 9.4112558 -2.31884766 8.29760742 C-2.30552399 7.34496506 -2.29220032 6.39232269 -2.2784729 5.41081238 C-2 3 -2 3 0 0 Z " fill="#FEFEFE" transform="translate(895,699)"/>
<path d="M0 0 C10.19535298 8.59849046 15.14364155 18.2751798 18.40625 31.0625 C18.5813208 31.69381836 18.7563916 32.32513672 18.93676758 32.97558594 C22.39134355 48.33165217 18.54067272 65.7157699 11.2109375 79.28125 C3.91692194 90.52224368 -7.3008447 97.68736828 -20.32177734 100.69628906 C-32.5676587 102.67015775 -47.40998946 102.76089227 -58.59375 97.0625 C-59.46773437 96.63839844 -60.34171875 96.21429687 -61.2421875 95.77734375 C-72.51897679 89.69871409 -79.04064593 79.78981939 -83.59375 68.0625 C-88.37516562 50.49201259 -87.07251878 30.05782773 -78.59375 13.875 C-71.70306302 1.98482002 -61.27284939 -4.80927897 -48.2734375 -8.6171875 C-31.91150512 -12.55917121 -13.60735112 -10.16452735 0 0 Z " fill="#FDFEFE" transform="translate(669.59375,754.9375)"/>
<path d="M0 0 C11.01040232 9.34270295 17.97147388 21.09028554 19.22753906 35.63476562 C20.2307113 54.0451844 18.09150173 71.70111239 5.8125 86.25 C-4.12649052 96.69658311 -16.27912746 101.04408951 -30.46142578 101.47265625 C-46.23166561 101.61457067 -59.7342852 98.77880739 -71.75 87.8125 C-85.37376723 73.28905003 -85.69576998 54.87254109 -85.17480469 36.1796875 C-84.46253059 23.2234614 -78.66251556 11.15620425 -69.375 2.125 C-50.49980266 -13.70488392 -19.76659181 -15.24948406 0 0 Z " fill="#FDFEFE" transform="translate(788,755)"/>
<path d="M0 0 C2.26293945 2.15893555 2.26293945 2.15893555 4.26293945 5.15893555 C4.07153537 11.57780813 2.21159522 15.98433064 -0.98706055 21.47143555 C-1.64762451 22.6294165 -1.64762451 22.6294165 -2.3215332 23.81079102 C-10.79892292 38.398488 -20.75091562 55.17279062 -32.73706055 67.15893555 C-35.44708056 67.32330285 -38.13289471 67.42248725 -40.84594727 67.47875977 C-41.69649185 67.4997876 -42.54703644 67.52081543 -43.4233551 67.54248047 C-51.30176571 67.72592695 -59.18168732 67.83165097 -67.06173515 67.91462517 C-72.35510802 67.97114237 -77.64543098 68.05245169 -82.93725586 68.19458008 C-88.05456863 68.33146139 -93.16912179 68.40353524 -98.28815079 68.43127823 C-100.23320536 68.45266903 -102.17815553 68.49654506 -104.12215805 68.56399155 C-120.12017587 69.09322391 -120.12017587 69.09322391 -125.33551025 64.32522583 C-128.22251025 61.18040642 -130.47697079 57.77299153 -132.73706055 54.15893555 C-133.82449073 52.73196239 -134.92377088 51.31365692 -136.04956055 49.91674805 C-136.94989593 48.70915408 -137.84582964 47.49826436 -138.73706055 46.28393555 C-139.22489014 45.62611084 -139.71271973 44.96828613 -140.21533203 44.29052734 C-141.22190622 42.93132028 -142.2264068 41.57057497 -143.22875977 40.20825195 C-144.75886356 38.12931197 -146.29628295 36.05593524 -147.8347168 33.9831543 C-148.82342188 32.64622805 -149.81171878 31.30899982 -150.79956055 29.97143555 C-151.47921875 29.05418701 -151.47921875 29.05418701 -152.17260742 28.1184082 C-159.32611992 18.37866755 -159.32611992 18.37866755 -159.1003418 12.0925293 C-158.52274217 9.01820872 -156.93570487 7.29291386 -154.73706055 5.15893555 C-148.72242273 2.15161664 -139.84500404 4.64039698 -133.4987793 5.58251953 C-102.70550802 10.0770122 -71.67438669 9.77373973 -41.1784668 3.40112305 C-40.42618805 3.24416458 -39.6739093 3.08720612 -38.89883423 2.92549133 C-35.17442078 2.14351479 -31.45669476 1.34066774 -27.74584961 0.49658203 C-6.35829247 -4.27686054 -6.35829247 -4.27686054 0 0 Z " fill="#FEFEFE" transform="translate(586.737060546875,198.841064453125)"/>
<path d="M0 0 C8.70155532 6.85887301 14.01598921 17.56349157 15.76171875 28.45703125 C16.0747692 32.37806715 16.13170955 36.2748065 16.13671875 40.20703125 C16.16121094 41.23441406 16.18570313 42.26179687 16.2109375 43.3203125 C16.21480469 44.30902344 16.21867187 45.29773438 16.22265625 46.31640625 C16.23087402 47.20811523 16.2390918 48.09982422 16.24755859 49.01855469 C15.59025702 52.31761405 14.36719927 53.36384772 11.76171875 55.45703125 C9.00286865 55.97601318 9.00286865 55.97601318 5.79980469 56.00292969 C4.59886169 56.02264832 3.3979187 56.04236694 2.1605835 56.06268311 C0.22291107 56.06452606 0.22291107 56.06452606 -1.75390625 56.06640625 C-3.09342446 56.08139151 -4.43292421 56.0981194 -5.7723999 56.11651611 C-9.29049538 56.16016436 -12.80834166 56.18018265 -16.32666016 56.19525146 C-19.9197461 56.21483204 -23.51256327 56.25680083 -27.10546875 56.296875 C-34.14963714 56.37214908 -41.193786 56.42245727 -48.23828125 56.45703125 C-48.0875415 57.7291748 -47.93680176 59.00131836 -47.78149414 60.31201172 C-47.69670303 61.02759247 -47.61191193 61.74317322 -47.52455139 62.48043823 C-46.67533943 68.34394333 -43.79998391 72.33287516 -39.17578125 75.89453125 C-32.59860058 80.52759326 -24.99756677 80.2023718 -17.23828125 79.45703125 C-11.35399839 78.14260232 -6.05399443 75.95412551 -0.73828125 73.14453125 C2.76171875 71.45703125 2.76171875 71.45703125 4.8125 71.4609375 C7.92426574 73.05111839 8.30792497 75.49556737 9.44921875 78.70703125 C9.86558594 79.8465625 10.28195312 80.98609375 10.7109375 82.16015625 C11.59439219 84.93203639 12.27200731 87.5941028 12.76171875 90.45703125 C7.48726117 94.72055113 2.11910863 97.27676515 -4.30078125 99.26953125 C-4.96078125 99.47602295 -5.62078125 99.68251465 -6.30078125 99.89526367 C-21.67516763 104.42576045 -38.83854505 103.95107503 -53.48828125 97.26953125 C-65.02214684 90.97833184 -71.6331795 82.04094249 -75.55078125 69.64453125 C-80.45277561 52.66336091 -80.57681056 32.73411271 -72.55078125 16.76953125 C-65.23715393 4.38441053 -55.02675701 -3.63550968 -41.11328125 -7.54296875 C-26.85880836 -10.45050362 -12.05532651 -8.31039087 0 0 Z " fill="#FDFDFE" transform="translate(275.23828125,753.54296875)"/>
<path d="M0 0 C11.13989199 8.15633831 15.43550796 19.45723666 17.78125 32.8515625 C19.73709073 48.81056543 19.73709073 48.81056543 16.24609375 55.64453125 C13.55711908 56.98901858 11.43017726 56.80648889 8.41943359 56.84985352 C6.58776138 56.87977135 6.58776138 56.87977135 4.71908569 56.91029358 C3.38173552 56.92727781 2.044384 56.94415662 0.70703125 56.9609375 C-0.65775178 56.98150728 -2.02252843 57.00250376 -3.38729858 57.02391052 C-6.98098598 57.07912884 -10.57473085 57.12853912 -14.16851807 57.17675781 C-17.83505371 57.22697462 -21.50150581 57.28265974 -25.16796875 57.33789062 C-32.36321051 57.44546925 -39.55852171 57.54691482 -46.75390625 57.64453125 C-46.46364782 59.24340282 -46.16518045 60.84078552 -45.86328125 62.4375 C-45.69795898 63.32719482 -45.53263672 64.21688965 -45.36230469 65.13354492 C-43.87050596 71.29050718 -39.74829876 75.04856864 -34.75390625 78.64453125 C-24.24166129 82.82022856 -13.89715133 80.95432208 -3.75390625 76.64453125 C-2.24498724 75.89130654 -0.74371845 75.12237525 0.74609375 74.33203125 C4.24609375 72.64453125 4.24609375 72.64453125 6.35400391 72.82299805 C8.24609375 73.64453125 8.24609375 73.64453125 10.01953125 77.1015625 C10.57009721 78.54713062 11.10333204 79.99939177 11.62109375 81.45703125 C11.90597656 82.18212891 12.19085938 82.90722656 12.484375 83.65429688 C13.55427316 86.56324884 14.40018167 88.87538651 13.78125 91.96484375 C6.2221767 100.23558553 -10.2789372 103.10555594 -21.05859375 103.8828125 C-35.41129416 104.18117279 -48.21446907 101.74442298 -59.75390625 92.64453125 C-60.75164062 91.85949219 -60.75164062 91.85949219 -61.76953125 91.05859375 C-71.02527386 82.80891012 -75.46642636 69.0592152 -76.625 56.98046875 C-77.62179835 38.91727442 -75.5733907 22.57287327 -63.56640625 8.33203125 C-47.05461666 -8.81271028 -20.31342064 -13.35810541 0 0 Z " fill="#FCFDFE" transform="translate(431.75390625,752.35546875)"/>
<path d="M0 0 C0.9169313 -0.00845947 1.83386261 -0.01691895 2.77857971 -0.02563477 C4.28417702 -0.01652573 4.28417702 -0.01652573 5.82019043 -0.00723267 C6.87894882 -0.01248962 7.93770721 -0.01774658 9.02854919 -0.02316284 C12.53671924 -0.03639266 16.04443745 -0.02761394 19.5526123 -0.01748657 C21.98494555 -0.01950644 24.41727821 -0.02241715 26.84960938 -0.02618408 C31.95070148 -0.03061149 37.05163614 -0.02416282 42.15270996 -0.01016235 C48.70023378 0.00692956 55.24738871 -0.00290937 61.79489899 -0.02087975 C66.8185302 -0.03170622 71.84207357 -0.02827643 76.8657074 -0.02049637 C79.28030948 -0.01849122 81.69491947 -0.0209646 84.10951233 -0.02793503 C87.48073538 -0.03553063 90.85135613 -0.02397127 94.22253418 -0.00723267 C95.22626572 -0.01330536 96.22999725 -0.01937805 97.2641449 -0.02563477 C98.1810762 -0.01717529 99.09800751 -0.00871582 100.04272461 0 C100.83986626 0.00113108 101.6370079 0.00226215 102.45830536 0.00342751 C105.04592813 0.4769424 105.9337432 1.31918224 107.5213623 3.38095093 C107.9095459 5.61752319 107.9095459 5.61752319 107.9197998 8.19735718 C107.92366699 9.12612671 107.92753418 10.05489624 107.93151855 11.0118103 C107.91991699 11.97925171 107.90831543 12.94669312 107.8963623 13.94345093 C107.90796387 14.91475952 107.91956543 15.88606812 107.93151855 16.8868103 C107.92765137 17.81429077 107.92378418 18.74177124 107.9197998 19.69735718 C107.91641602 20.54757446 107.91303223 21.39779175 107.9095459 22.27377319 C107.78144531 22.96914185 107.65334473 23.6645105 107.5213623 24.38095093 C103.66531805 26.9516471 100.39389887 26.73160149 95.91589355 26.79501343 C95.07668869 26.81437958 94.23748383 26.83374573 93.37284851 26.85369873 C90.69328972 26.91346306 88.0136879 26.95986705 85.3338623 27.00595093 C83.51678631 27.04413363 81.69972836 27.08318553 79.88269043 27.12313843 C75.42906098 27.21916196 70.9753468 27.30320452 66.5213623 27.38095093 C66.51989574 27.98117223 66.51842918 28.58139353 66.51691818 29.19980335 C66.47988513 43.79674555 66.42091718 58.3934847 66.33745956 72.99023151 C66.29763047 80.04910482 66.26525778 87.10786601 66.25036621 94.1668396 C66.23598275 100.97507253 66.2009162 107.7829456 66.15305328 114.5910244 C66.13817919 117.19259821 66.13031786 119.79422159 66.12947845 122.39583778 C66.12712523 126.03098513 66.10017688 129.66515967 66.06726074 133.30014038 C66.07480629 134.92501625 66.07480629 134.92501625 66.08250427 136.5827179 C66.06163506 138.06558792 66.06163506 138.06558792 66.04034424 139.57841492 C66.03481348 140.8684642 66.03481348 140.8684642 66.02917099 142.18457508 C65.5213623 144.38095093 65.5213623 144.38095093 63.64628983 146.15783978 C60.99795129 147.68222701 59.24990798 147.7540606 56.20495605 147.74423218 C54.68805176 147.74326538 54.68805176 147.74326538 53.14050293 147.74227905 C51.56559082 147.71810913 51.56559082 147.71810913 49.9588623 147.69345093 C48.90505371 147.69667358 47.85124512 147.69989624 46.76550293 147.70321655 C38.92217303 147.64815808 38.92217303 147.64815808 35.5213623 145.38095093 C35.13939476 143.3288269 35.13939476 143.3288269 35.12936401 140.75009155 C35.11827103 139.77419067 35.10717804 138.79828979 35.0957489 137.79281616 C35.09875504 136.71846313 35.10176117 135.64411011 35.1048584 134.53720093 C35.09198036 132.84446045 35.09198036 132.84446045 35.07884216 131.11752319 C35.05366423 127.37193669 35.04939276 123.62661449 35.0447998 119.88095093 C35.03050063 117.28784364 35.01474561 114.69474401 34.99758911 112.10165405 C34.9599223 105.96297814 34.93483301 99.8243759 34.91646445 93.68561554 C34.88111712 82.03896311 34.81738004 70.39245523 34.75160599 58.74594116 C34.73245184 54.91138744 34.72076612 51.07686491 34.71017456 47.24227905 C34.69996628 44.90308565 34.68960869 42.5638929 34.67907715 40.22470093 C34.67803482 39.1503479 34.67699249 38.07599487 34.67591858 36.96908569 C34.67046524 35.99318481 34.6650119 35.01728394 34.65939331 34.0118103 C34.65683722 33.16082764 34.65428112 32.30984497 34.65164757 31.43307495 C34.65101351 29.31555024 34.65101351 29.31555024 33.5213623 27.38095093 C32.38593994 27.36113159 31.25051758 27.34131226 30.08068848 27.32089233 C25.87050086 27.24485408 21.66065967 27.15613407 17.45080566 27.06356812 C15.62828406 27.02527098 13.80568668 26.99041938 11.98303223 26.95907593 C9.36402289 26.91344113 6.74553556 26.85544471 4.12683105 26.79501343 C3.3111113 26.78346222 2.49539154 26.77191101 1.654953 26.76000977 C-2.21228274 26.65897819 -4.19023554 26.57321903 -7.4786377 24.38095093 C-7.86682129 22.27377319 -7.86682129 22.27377319 -7.8770752 19.69735718 C-7.88094238 18.76987671 -7.88480957 17.84239624 -7.88879395 16.8868103 C-7.87719238 15.91550171 -7.86559082 14.94419312 -7.8536377 13.94345093 C-7.87104004 12.49228882 -7.87104004 12.49228882 -7.88879395 11.0118103 C-7.88492676 10.08304077 -7.88105957 9.15427124 -7.8770752 8.19735718 C-7.87369141 7.34601196 -7.87030762 6.49466675 -7.86682129 5.61752319 C-7.07053408 1.02960676 -4.33364131 0.00614907 0 0 Z " fill="#FCFDFE" transform="translate(104.4786376953125,707.6190490722656)"/>
<path d="M0 0 C1.11246094 -0.00257813 2.22492188 -0.00515625 3.37109375 -0.0078125 C4.53769531 -0.00007812 5.70429688 0.00765625 6.90625 0.015625 C8.07285156 0.00789062 9.23945313 0.00015625 10.44140625 -0.0078125 C11.55386719 -0.00523437 12.66632813 -0.00265625 13.8125 0 C14.83666016 0.00225586 15.86082031 0.00451172 16.91601562 0.00683594 C19.40625 0.265625 19.40625 0.265625 21.40625 2.265625 C21.66351891 4.86156368 21.66351891 4.86156368 21.67367554 8.2184906 C21.68220551 9.48744171 21.69073547 10.75639282 21.69952393 12.063797 C21.69882484 13.47799695 21.69790174 14.89219681 21.69677734 16.30639648 C21.70275888 17.7894932 21.70956356 19.2725868 21.71713257 20.75567627 C21.73483737 24.79077111 21.73948981 28.8257812 21.74076414 32.86091113 C21.74266039 36.22587233 21.75001469 39.59081365 21.75710833 42.95576721 C21.77340669 50.89247805 21.77827594 58.8291435 21.77685547 66.76586914 C21.77565344 74.96160226 21.79676401 83.15707228 21.8283428 91.3527388 C21.85446555 98.38207983 21.86522446 105.41133473 21.86394465 112.44072396 C21.86343386 116.64223695 21.86918118 120.84351622 21.89030075 125.044981 C21.90961625 128.9955584 21.90985403 132.94567752 21.89526749 136.89627075 C21.89316996 138.34793324 21.89793624 139.7996239 21.9099884 141.25123787 C21.92535092 143.22935992 21.91377471 145.20763709 21.90072632 147.18577576 C21.90181585 148.29393867 21.90290539 149.40210157 21.90402794 150.54384518 C21.40625 153.265625 21.40625 153.265625 19.52024269 155.1213541 C17.0199679 156.47471341 15.39609076 156.6525572 12.5625 156.6640625 C11.64597656 156.66792969 10.72945313 156.67179688 9.78515625 156.67578125 C8.36009766 156.65837891 8.36009766 156.65837891 6.90625 156.640625 C5.95621094 156.65222656 5.00617188 156.66382813 4.02734375 156.67578125 C3.11082031 156.67191406 2.19429688 156.66804687 1.25 156.6640625 C0.41662109 156.66067871 -0.41675781 156.65729492 -1.27539062 156.65380859 C-4.2310107 156.15892276 -5.45611517 155.36894197 -7.59375 153.265625 C-8.09152794 150.54384518 -8.09152794 150.54384518 -8.08822632 147.18577576 C-8.0966153 145.91400482 -8.10500427 144.64223389 -8.11364746 143.33192444 C-8.10268034 141.91976624 -8.09131437 140.5076111 -8.07958984 139.09545898 C-8.08173535 137.6105923 -8.08561252 136.12572725 -8.09109497 134.64086914 C-8.10079964 130.60575224 -8.085472 126.57107687 -8.06518888 122.53601336 C-8.04764228 118.31820842 -8.05114248 114.10041762 -8.0519104 109.88258362 C-8.05003659 102.79998367 -8.0326609 95.71755498 -8.00537109 88.63500977 C-7.97390728 80.43873391 -7.96337526 72.24264559 -7.9648422 64.0463137 C-7.9660616 56.17019823 -7.95586214 48.29414403 -7.93925858 40.41804695 C-7.93218553 37.06201767 -7.92853103 33.70601006 -7.92747116 30.34997368 C-7.92546652 26.40110501 -7.91329185 22.45239465 -7.89313889 18.50357819 C-7.8872825 17.05151145 -7.88483944 15.59942649 -7.88599396 14.1473484 C-7.88697091 12.1710454 -7.87446007 10.1947492 -7.86117554 8.2184906 C-7.85782385 7.11070472 -7.85447216 6.00291883 -7.85101891 4.86156368 C-7.34077423 -0.28699434 -4.44092509 0.00978177 0 0 Z " fill="#FDFEFE" transform="translate(315.59375,698.734375)"/>
<path d="M0 0 C6.48904066 3.80300334 9.85772726 8.90219964 12.08325195 15.95581055 C13.08245576 20.05961123 13.17680172 24.04223169 13.125 28.25 C13.11670166 29.12366211 13.10840332 29.99732422 13.09985352 30.89746094 C12.8376075 40.98040019 10.76248255 49.49813353 3.53515625 56.87890625 C-1.20812116 60.88010644 -6.01258278 61.96478865 -12.05078125 61.71875 C-19.17980915 60.83223876 -24.37470879 57.57566535 -29.3125 52.4375 C-30.95158061 49.15933878 -30.51846251 45.526681 -30.55078125 41.921875 C-30.558853 41.07328918 -30.56692474 40.22470337 -30.57524109 39.35040283 C-30.58908441 37.55149378 -30.59980546 35.75255843 -30.60766602 33.95361328 C-30.62484614 31.21205272 -30.66872484 28.47170844 -30.71289062 25.73046875 C-30.72302061 23.98177969 -30.73153575 22.23308039 -30.73828125 20.484375 C-30.75578934 19.66853943 -30.77329742 18.85270386 -30.79133606 18.012146 C-30.76816847 11.88361963 -29.0762212 8.34965636 -24.78515625 3.828125 C-17.55111268 -2.02323434 -8.75122595 -3.9212224 0 0 Z " fill="#0C80C6" transform="translate(527.3125,771.5625)"/>
<path d="M0 0 C6.09943978 3.48712992 9.51429059 8.79472407 11.6875 15.375 C14.63151162 27.95714491 14.18056691 42.49187734 7.9375 53.9375 C4.03690302 58.64116107 -0.03960192 61.9745465 -6.22265625 62.7578125 C-12.05213522 63.05778569 -16.40821417 61.87791974 -21.1875 58.5 C-29.37165946 50.31584054 -30.37575918 41.26377733 -30.4375 30.3125 C-30.458125 29.41724609 -30.47875 28.52199219 -30.5 27.59960938 C-30.55496328 18.08409135 -28.79539889 10.09316935 -22.0703125 3.12890625 C-15.73229809 -2.35439667 -7.59247766 -3.26012877 0 0 Z " fill="#0C80C6" transform="translate(645.1875,770.5)"/>
<path d="M0 0 C3.88023027 2.01362856 6.20862869 4.10753308 8.5625 7.8125 C9.20199143 11.01166744 9.2417616 14.17002449 9.26953125 17.42578125 C9.28521652 18.35416306 9.30090179 19.28254486 9.31706238 20.23905945 C9.34164707 22.19987656 9.35526354 24.16085786 9.35864258 26.12182617 C9.374901 29.10682412 9.46037173 32.08474242 9.54882812 35.06835938 C9.74722952 48.945358 9.74722952 48.945358 6.60473633 53.89794922 C4.33632442 55.94685222 2.2787833 57.42934544 -0.4375 58.8125 C-1.406875 59.3075 -2.37625 59.8025 -3.375 60.3125 C-10.37671325 61.45563686 -16.38536412 61.68660603 -22.6875 58.078125 C-27.86066276 54.33681979 -31.40658834 48.8072827 -33 42.6328125 C-34.97153092 29.92347925 -34.30162743 15.28820331 -26.83203125 4.43359375 C-19.943189 -3.57444416 -9.13471841 -4.3234053 0 0 Z " fill="#0C80C6" transform="translate(884.4375,771.1875)"/>
<path d="M0 0 C6.94791676 3.97221536 10.07558733 9.13300712 12.21704102 16.68652344 C13.18116696 21.14071413 13.20839597 25.45992314 13.125 30 C13.12822266 30.88107422 13.13144531 31.76214844 13.13476562 32.66992188 C13.06256523 41.56369795 12.09855098 50.6656418 5.8125 57.4375 C0.42927964 61.37690815 -5.11784484 63.30614559 -11.80078125 62.91796875 C-17.29869701 61.81118702 -21.43953027 58.68675107 -25 54.4375 C-31.90519662 43.6364661 -31.40787307 28.65233976 -29.0625 16.5625 C-27.34542921 10.00568548 -24.84098544 5.1429291 -19.3359375 1.06640625 C-13.07459917 -2.53822876 -6.61770246 -2.91178908 0 0 Z " fill="#0D80C5" transform="translate(763.1875,770.5625)"/>
<path d="M0 0 C5.15101267 2.90329805 8.2682519 6.49270852 10.8125 11.8125 C11.4375 14.9375 11.4375 14.9375 11.4375 23.9375 C-1.1025 23.9375 -13.6425 23.9375 -26.5625 23.9375 C-28.33943299 20.38363401 -26.67946496 16.75537186 -25.703125 13.05859375 C-23.55181023 7.1719482 -19.72804222 2.70646996 -14.0625 -0.0625 C-8.85852484 -1.54935005 -5.18946892 -1.54773634 0 0 Z " fill="#0B7CC4" transform="translate(253.5625,766.0625)"/>
<path d="M0 0 C5.2832728 2.67609253 7.42251082 6.95867379 9.484375 12.28515625 C9.89407545 15.66518495 9.84601362 18.94267845 9.734375 22.34765625 C8.734375 23.34765625 8.734375 23.34765625 5.22436523 23.46118164 C3.66389078 23.46102251 2.10341107 23.45532767 0.54296875 23.4453125 C-0.27686996 23.44389755 -1.09670868 23.4424826 -1.94139099 23.44102478 C-4.57033882 23.43540914 -7.19920273 23.42285404 -9.828125 23.41015625 C-11.60611857 23.40514326 -13.38411346 23.40058001 -15.16210938 23.39648438 C-19.52998045 23.38543464 -23.89778848 23.36815956 -28.265625 23.34765625 C-28.33798991 14.60292833 -26.62391772 9.39849857 -20.86328125 2.79296875 C-15.34812841 -2.19628932 -6.87174681 -1.97858917 0 0 Z " fill="#0B7CC4" transform="translate(413.265625,766.65234375)"/>
<path d="M0 0 C0.66 0 1.32 0 2 0 C2 2.64 2 5.28 2 8 C0.9275 7.938125 -0.145 7.87625 -1.25 7.8125 C-5.28816017 8.01440801 -5.99756931 8.61876187 -9 11 C-11.11328125 10.58984375 -11.11328125 10.58984375 -13 10 C-12.31292969 9.61328125 -11.62585938 9.2265625 -10.91796875 8.828125 C-10.01691406 8.30734375 -9.11585938 7.7865625 -8.1875 7.25 C-7.29417969 6.73953125 -6.40085937 6.2290625 -5.48046875 5.703125 C-3.01208869 4.00830026 -1.7336755 2.39486706 0 0 Z " fill="#065FB4" transform="translate(893,843)"/>
<path d="M0 0 C0 3 0 3 -2.3125 5.375 C-3.199375 6.24125 -4.08625 7.1075 -5 8 C-6.05104383 9.63495707 -7.05988318 11.29883624 -8 13 C-10.40436026 16.60654039 -11.94679607 16.85452932 -16 18 C-4.85714286 4.85714286 -4.85714286 4.85714286 0 0 Z " fill="#075FB4" transform="translate(719,533)"/>
<path d="M0 0 C2.64 0 5.28 0 8 0 C4.45041822 2.94134142 0.58140261 4.80792028 -3.5625 6.75 C-4.23474609 7.07871094 -4.90699219 7.40742187 -5.59960938 7.74609375 C-10.64170248 10.11943251 -10.64170248 10.11943251 -14 9 C-12.5437455 8.32880451 -11.08492133 7.66318193 -9.625 7 C-8.81289063 6.62875 -8.00078125 6.2575 -7.1640625 5.875 C-5 5 -5 5 -3 5 C-3 4.34 -3 3.68 -3 3 C-2.34 3 -1.68 3 -1 3 C-0.67 2.01 -0.34 1.02 0 0 Z " fill="#0760B5" transform="translate(616,576)"/>
<path d="M0 0 C0.66 0.99 1.32 1.98 2 3 C1.11728545 6.5308582 0.02559537 8.96160695 -2 12 C-4.125 12.6875 -4.125 12.6875 -6 13 C-4.58707905 8.1725201 -2.57025846 4.2837641 0 0 Z " fill="#086EBC" transform="translate(589,212)"/>
<path d="M0 0 C1.43691657 2.87383315 0.30424655 4.70035638 -0.640625 7.61914062 C-0.88296875 8.34294922 -1.1253125 9.06675781 -1.375 9.8125 C-3.52304922 16.3162145 -3.52304922 16.3162145 -5 23 C-5.33 23 -5.66 23 -6 23 C-5.53789997 17.17510746 -4.81339432 11.58525743 -3.40234375 5.91015625 C-2.89694433 3.83608073 -2.89694433 3.83608073 -3 1 C-2.01 0.67 -1.02 0.34 0 0 Z " fill="#065BB3" transform="translate(827,768)"/>
<path d="M0 0 C0.7425 0.598125 1.485 1.19625 2.25 1.8125 C3.87731812 3.10695759 5.51829754 4.38502103 7.1875 5.625 C9 7 9 7 11 9 C11.99 9.66 12.98 10.32 14 11 C8.82195567 10.74741247 6.2021914 8.91755509 2.41796875 5.66796875 C0.82178213 3.7903608 0.40194848 2.40647077 0 0 Z " fill="#095DB5" transform="translate(855,820)"/>
<path d="M0 0 C0.66 0.99 1.32 1.98 2 3 C-0.10504394 5.13713302 -2.25699562 7.19535795 -4.5 9.1875 C-5.0878125 9.71730469 -5.675625 10.24710938 -6.28125 10.79296875 C-8 12 -8 12 -11 12 C-10.37351562 11.38511719 -9.74703125 10.77023437 -9.1015625 10.13671875 C-8.28429687 9.32847656 -7.46703125 8.52023437 -6.625 7.6875 C-5.40683594 6.48673828 -5.40683594 6.48673828 -4.1640625 5.26171875 C-1.87395158 2.99990063 -1.87395158 2.99990063 0 0 Z " fill="#0B5EB3" transform="translate(680,834)"/>
<path d="M0 0 C-2.95536544 2.95536544 -5.55502193 3.15448947 -9.5625 3.1875 C-10.74005859 3.20876953 -10.74005859 3.20876953 -11.94140625 3.23046875 C-14 3 -14 3 -16 1 C-10.65097076 0.40801257 -5.39115154 -0.14187241 0 0 Z " fill="#095EB5" transform="translate(527,830)"/>
<path d="M0 0 C3.66415876 2.06312314 6.70548128 4.35872176 9.8125 7.1875 C10.60269531 7.90292969 11.39289062 8.61835938 12.20703125 9.35546875 C12.79871094 9.89816406 13.39039063 10.44085938 14 11 C9.99870664 11 9.00566493 9.58626983 6 7 C5.4534375 6.56816406 4.906875 6.13632813 4.34375 5.69140625 C2.8562357 4.50911304 1.42382701 3.25826573 0 2 C0 1.34 0 0.68 0 0 Z " fill="#0756B2" transform="translate(662,167)"/>
<path d="M0 0 C3.33333333 0.66666667 6.66666667 1.33333333 10 2 C11.40185547 2.28037109 11.40185547 2.28037109 12.83203125 2.56640625 C13.54746094 2.70949219 14.26289063 2.85257813 15 3 C15 3.33 15 3.66 15 4 C13.06318839 4.08107583 11.1254066 4.13922475 9.1875 4.1875 C8.10855469 4.22230469 7.02960938 4.25710938 5.91796875 4.29296875 C3 4 3 4 1.11328125 2.55078125 C0 1 0 1 0 0 Z " fill="#035FB5" transform="translate(383,852)"/>
<path d="M0 0 C0.66 0.33 1.32 0.66 2 1 C1.01 1.33 0.02 1.66 -1 2 C-1.433125 2.99 -1.433125 2.99 -1.875 4 C-3 6 -3 6 -5.375 6.6875 C-6.24125 6.790625 -7.1075 6.89375 -8 7 C-9.33542939 7.32483418 -10.66961551 7.6550855 -12 8 C-9.72254211 5.51017465 -7.37664762 3.89631003 -4.4375 2.25 C-3.65246094 1.80140625 -2.86742187 1.3528125 -2.05859375 0.890625 C-1.37925781 0.59671875 -0.69992187 0.3028125 0 0 Z " fill="#0A5CB2" transform="translate(652,589)"/>
<path d="M0 0 C0.33 0.66 0.66 1.32 1 2 C0.14453125 4.3125 0.14453125 4.3125 -1.1875 7 C-1.61417969 7.886875 -2.04085937 8.77375 -2.48046875 9.6875 C-4.12049388 12.18337372 -5.2451887 12.96178418 -8 14 C-6.6744419 10.37723685 -5.05653045 7.36494652 -2.875 4.1875 C-2.33617187 3.39730469 -1.79734375 2.60710937 -1.2421875 1.79296875 C-0.83226562 1.20128906 -0.42234375 0.60960937 0 0 Z " fill="#0C5BB2" transform="translate(745,496)"/>
<path d="M0 0 C0 0.66 0 1.32 0 2 C-1.175625 2.0928125 -1.175625 2.0928125 -2.375 2.1875 C-3.24125 2.455625 -4.1075 2.72375 -5 3 C-6.37466625 5.47636012 -6.37466625 5.47636012 -7 8 C-7.33 7.34 -7.66 6.68 -8 6 C-9.32 6.33 -10.64 6.66 -12 7 C-8.8380314 3.47318887 -4.98182478 0 0 0 Z " fill="#0860B6" transform="translate(395,144)"/>
<path d="M0 0 C0.33 0 0.66 0 1 0 C1.99 3.3 2.98 6.6 4 10 C3.01 10.99 2.02 11.98 1 13 C-0.00496852 9.98509443 -0.10335303 7.95818308 -0.0625 4.8125 C-0.05347656 3.91144531 -0.04445313 3.01039063 -0.03515625 2.08203125 C-0.02355469 1.39496094 -0.01195312 0.70789063 0 0 Z " fill="#085EB3" transform="translate(495,748)"/>
<path d="M0 0 C3.19199167 2.41556126 5.74716687 4.68003538 8 8 C7.67 8.66 7.34 9.32 7 10 C4.625 8.9375 4.625 8.9375 2 7 C0.6875 3.3125 0.6875 3.3125 0 0 Z " fill="#055FB3" transform="translate(694,197)"/>
<path d="M0 0 C2.5625 2.1875 2.5625 2.1875 5 5 C4.8125 7.8125 4.8125 7.8125 4 10 C1.7448078 7.7448078 1.02276532 5.9952413 0 3 C0 2.01 0 1.02 0 0 Z " fill="#0969B8" transform="translate(635,393)"/>
<path d="M0 0 C2.49361571 1.20381448 4.68143083 2.45428722 7 4 C7.66 4 8.32 4 9 4 C9.33 5.65 9.66 7.3 10 9 C5.82117329 6.43571997 2.87494471 3.98069267 0 0 Z " fill="#0F63B5" transform="translate(691,157)"/>
<path d="M0 0 C0.66 0.33 1.32 0.66 2 1 C0.71283353 2.00578589 -0.57988658 3.00446798 -1.875 4 C-2.95394531 4.8353125 -2.95394531 4.8353125 -4.0546875 5.6875 C-6 7 -6 7 -8 7 C-8 6.01 -8 5.02 -8 4 C-7.01 4 -6.02 4 -5 4 C-4.34 3.01 -3.68 2.02 -3 1 C-2.01 0.67 -1.02 0.34 0 0 Z " fill="#0D62B6" transform="translate(660,552)"/>
<path d="M0 0 C0.33 0 0.66 0 1 0 C1.33 3.96 1.66 7.92 2 12 C1.01 12.33 0.02 12.66 -1 13 C-0.67 8.71 -0.34 4.42 0 0 Z " fill="#095EB3" transform="translate(780,389)"/>
<path d="M0 0 C2.31 0 4.62 0 7 0 C4.47211993 2.79872437 2.79588866 4.45773019 -1 5 C-1.33 4.01 -1.66 3.02 -2 2 C-1.34 2 -0.68 2 0 2 C0 1.34 0 0.68 0 0 Z " fill="#0A6ABB" transform="translate(362,128)"/>
<path d="M0 0 C3.59391114 1.33488128 6.75490696 2.96022723 10 5 C7.45297384 6.27351308 6.5717055 5.80191925 3.875 5.0625 C3.15054687 4.86785156 2.42609375 4.67320312 1.6796875 4.47265625 C1.12539063 4.31667969 0.57109375 4.16070313 0 4 C0 2.66666667 0 1.33333333 0 0 Z " fill="#0B5FB4" transform="translate(362,586)"/>
<path d="M0 0 C0.99 0.33 1.98 0.66 3 1 C2.07347299 2.17539996 1.13336613 3.34010577 0.1875 4.5 C-0.33457031 5.1496875 -0.85664062 5.799375 -1.39453125 6.46875 C-3 8 -3 8 -6 8 C-4.73046875 6.50260417 -3.4609375 5.00520833 -2.19140625 3.5078125 C-0.9121848 1.99405921 -0.9121848 1.99405921 0 0 Z " fill="#065DB4" transform="translate(681,532)"/>
<path d="M0 0 C6.52307692 1.35384615 6.52307692 1.35384615 8.9375 4.625 C9.288125 5.40875 9.63875 6.1925 10 7 C5.56541027 5.6062718 3.12621626 3.39417765 0 0 Z " fill="#0B61B5" transform="translate(664,136)"/>
<path d="M0 0 C0 0.66 0 1.32 0 2 C-0.94875 2.45375 -1.8975 2.9075 -2.875 3.375 C-6.00313679 4.80238254 -6.00313679 4.80238254 -8 7 C-8 6.34 -8 5.68 -8 5 C-8.99 4.67 -9.98 4.34 -11 4 C-9.5437455 3.32880451 -8.08492133 2.66318193 -6.625 2 C-5.81289063 1.62875 -5.00078125 1.2575 -4.1640625 0.875 C-2 0 -2 0 0 0 Z " fill="#045BB3" transform="translate(785,849)"/>
<path d="M0 0 C-3.5087188 3.09592835 -6.49197399 4.74194623 -11 6 C-10 5 -9 4 -8 3 C-7.54625 2.443125 -7.0925 1.88625 -6.625 1.3125 C-4.39493352 -0.48870754 -2.7845571 -0.2257749 0 0 Z " fill="#0B5CB3" transform="translate(637,569)"/>
<path d="M0 0 C0.33 0.66 0.66 1.32 1 2 C0.22265625 3.9453125 0.22265625 3.9453125 -0.9375 6.125 C-1.31777344 6.84945313 -1.69804687 7.57390625 -2.08984375 8.3203125 C-2.39019531 8.87460937 -2.69054687 9.42890625 -3 10 C-3.33 10 -3.66 10 -4 10 C-4 8.35 -4 6.7 -4 5 C-3.34 5 -2.68 5 -2 5 C-2.33 4.01 -2.66 3.02 -3 2 C-2.01 1.34 -1.02 0.68 0 0 Z " fill="#0360B5" transform="translate(404,359)"/>
<path d="M0 0 C0.66 0 1.32 0 2 0 C2 0.99 2 1.98 2 3 C2.99 3.33 3.98 3.66 5 4 C4.67 5.65 4.34 7.3 4 9 C1.3144406 6.3144406 0.93950026 3.62378672 0 0 Z " fill="#0564B7" transform="translate(283,829)"/>
<path d="M0 0 C0.99 0.33 1.98 0.66 3 1 C2.38125 1.0825 1.7625 1.165 1.125 1.25 C-1.18437567 1.81258459 -1.18437567 1.81258459 -2.25 4.0625 C-2.4975 4.701875 -2.745 5.34125 -3 6 C-3.99 5.34 -4.98 4.68 -6 4 C-3.1875 1.9375 -3.1875 1.9375 0 0 Z " fill="#025CB4" transform="translate(629,770)"/>
<path d="M0 0 C-2.52788007 2.79872437 -4.20411134 4.45773019 -8 5 C-7.625 3.0625 -7.625 3.0625 -7 1 C-4.53721199 -0.231394 -2.7204945 -0.07159196 0 0 Z " fill="#0967B9" transform="translate(648,562)"/>
<path d="M0 0 C0.33 0.66 0.66 1.32 1 2 C-1.52788007 4.79872437 -3.20411134 6.45773019 -7 7 C-4.66666667 4.66666667 -2.33333333 2.33333333 0 0 Z " fill="#075BB2" transform="translate(636,506)"/>
<path d="M0 0 C-2.8125 2.0625 -2.8125 2.0625 -6 4 C-6.99 3.67 -7.98 3.34 -9 3 C-6.38220849 -0.01046024 -3.86655673 -1.93327837 0 0 Z " fill="#075BB2" transform="translate(650,828)"/>
<path d="M0 0 C0.99 0 1.98 0 3 0 C4.06775224 1.96466413 5.06553465 3.96855359 6 6 C5.67 6.66 5.34 7.32 5 8 C0 2.25 0 2.25 0 0 Z " fill="#055FB3" transform="translate(312,504)"/>
<path d="M0 0 C-2.97 2.475 -2.97 2.475 -6 5 C-6.66 4.67 -7.32 4.34 -8 4 C-7 1 -7 1 -4.5625 -0.25 C-2 -1 -2 -1 0 0 Z " fill="#085FB5" transform="translate(348,143)"/>
</svg>
